<?xml version="1.0" encoding="UTF-8"?>
<svg xmlns="http://www.w3.org/2000/svg" xmlns:xlink="http://www.w3.org/1999/xlink" width="128px" height="128px" viewBox="0 0 128 128" version="1.1">
<g id="surface1">
<path style=" stroke:none;fill-rule:nonzero;fill:rgb(44.705882%,45.098039%,45.490196%);fill-opacity:1;" d="M 33.875 0 L 39.660156 0 C 39.964844 0 40.210938 0.363281 40.210938 0.8125 L 40.210938 86.828125 C 40.210938 87.277344 39.964844 87.640625 39.660156 87.640625 L 33.875 87.640625 C 33.570312 87.640625 33.324219 87.277344 33.324219 86.828125 L 33.324219 0.8125 C 33.324219 0.363281 33.570312 0 33.875 0 Z M 73.71875 70.761719 L 73.71875 72.929688 C 73.71875 73.921875 73.59375 75.183594 73.351562 76.808594 C 73.167969 78.34375 72.621094 80.058594 71.644531 81.59375 C 70.730469 83.125 69.390625 84.570312 67.503906 85.835938 C 65.613281 86.917969 63.117188 87.550781 59.828125 87.550781 C 56.535156 87.550781 54.039062 86.917969 52.148438 85.835938 C 50.261719 84.75 48.980469 83.308594 48.007812 81.59375 C 47.09375 80.058594 46.484375 78.34375 46.300781 76.71875 C 46.117188 75.09375 45.9375 73.832031 45.9375 72.929688 L 45.9375 23.917969 C 45.9375 23.46875 46.179688 23.105469 46.484375 23.105469 L 52.273438 23.105469 C 52.578125 23.105469 52.820312 23.46875 52.820312 23.917969 L 52.820312 69.769531 C 52.820312 71.304688 52.941406 72.386719 53.125 73.199219 C 53.246094 74.101562 53.550781 74.914062 53.976562 75.636719 C 54.40625 76.449219 55.074219 77.078125 55.988281 77.621094 C 56.839844 78.164062 58.058594 78.433594 59.582031 78.433594 C 61.167969 78.433594 62.445312 78.164062 63.359375 77.621094 C 64.273438 77.078125 65.003906 76.539062 65.429688 75.726562 C 65.917969 75.003906 66.222656 74.191406 66.40625 73.289062 C 66.527344 72.386719 66.773438 71.753906 66.773438 69.589844 L 66.773438 23.917969 C 66.773438 23.46875 67.015625 23.105469 67.320312 23.105469 L 73.109375 23.105469 C 73.414062 23.105469 73.65625 23.46875 73.65625 23.917969 Z M 93.457031 23.195312 L 97.355469 23.195312 C 97.722656 23.195312 97.964844 23.738281 97.84375 24.1875 L 96.503906 31.679688 C 96.441406 32.042969 96.199219 32.3125 96.015625 32.3125 L 93.273438 32.3125 C 91.8125 32.3125 90.652344 32.582031 89.738281 33.214844 C 88.886719 33.847656 88.09375 34.386719 87.667969 35.199219 C 87.242188 36.011719 86.9375 36.734375 86.753906 37.636719 C 86.632812 38.539062 86.570312 39.261719 86.570312 40.074219 L 86.570312 86.917969 C 86.570312 87.367188 86.328125 87.730469 86.023438 87.730469 L 80.175781 87.730469 C 79.871094 87.730469 79.625 87.367188 79.625 86.917969 L 79.625 37.910156 C 79.625 37.003906 79.75 35.742188 79.992188 34.117188 C 80.175781 32.492188 80.722656 30.867188 81.699219 29.242188 C 82.613281 27.710938 83.953125 26.265625 85.839844 25 C 87.667969 23.738281 90.226562 23.195312 93.457031 23.195312 Z M 13.769531 23.195312 C 18.460938 23.195312 21.992188 24.550781 24.1875 27.347656 C 26.378906 30.144531 27.476562 33.574219 27.476562 37.726562 L 27.476562 72.929688 C 27.476562 74.371094 27.292969 75.90625 26.929688 77.621094 C 26.5625 79.335938 25.890625 80.960938 24.917969 82.316406 C 23.882812 83.757812 22.480469 84.933594 20.714844 85.925781 C 18.945312 86.917969 16.632812 87.367188 13.769531 87.367188 C 10.90625 87.367188 8.589844 86.828125 6.824219 85.925781 C 5.054688 85.023438 3.65625 83.757812 2.621094 82.316406 C 1.585938 80.871094 0.914062 79.335938 0.609375 77.621094 C 0.242188 75.996094 0 74.371094 0 72.929688 L 0 67.332031 C 0 64.351562 0.546875 61.554688 1.585938 59.027344 C 2.679688 56.589844 4.144531 54.785156 6.03125 53.792969 C 7.007812 53.25 8.042969 52.800781 9.320312 52.167969 C 10.539062 51.535156 11.757812 50.996094 12.914062 50.273438 C 14.074219 49.640625 15.046875 49.191406 15.960938 48.738281 C 16.816406 48.199219 17.363281 48.015625 17.605469 47.835938 C 17.789062 47.65625 18.09375 47.476562 18.398438 47.203125 C 18.765625 46.933594 19.070312 46.484375 19.433594 46.03125 C 19.800781 45.398438 20.042969 44.859375 20.226562 44.136719 C 20.46875 43.414062 20.59375 42.601562 20.59375 41.609375 L 20.59375 39.351562 C 20.59375 38.539062 20.46875 37.816406 20.226562 36.914062 C 20.042969 36.011719 19.617188 35.382812 19.128906 34.570312 C 18.640625 33.847656 17.851562 33.304688 16.996094 32.855469 C 16.144531 32.402344 15.046875 32.222656 13.648438 32.222656 C 10.964844 32.222656 9.199219 33.035156 8.164062 34.660156 C 7.371094 36.101562 6.824219 37.816406 6.761719 39.804688 C 6.761719 40.253906 6.519531 40.527344 6.214844 40.527344 L 0.546875 40.527344 C 0.242188 40.527344 0 40.164062 0 39.714844 L 0 37.636719 C 0 35.652344 0.242188 33.757812 0.730469 32.042969 C 1.21875 30.144531 2.070312 28.613281 3.230469 27.257812 C 4.324219 25.996094 5.789062 24.820312 7.554688 24.1875 C 9.261719 23.648438 11.332031 23.195312 13.769531 23.195312 Z M 20.714844 54.875 C 20.59375 55.6875 20.289062 56.230469 19.921875 56.683594 C 19.496094 57.132812 19.128906 57.3125 18.703125 57.585938 C 17.910156 58.035156 16.996094 58.488281 16.082031 58.9375 C 15.167969 59.480469 14.257812 59.929688 13.464844 60.292969 C 12.488281 60.832031 11.515625 61.285156 10.722656 61.734375 C 10.050781 62.1875 9.441406 62.730469 8.832031 63.359375 C 8.347656 63.992188 7.921875 64.804688 7.492188 65.796875 C 7.066406 66.878906 6.882812 68.054688 6.882812 69.589844 C 6.882812 72.566406 7.371094 74.824219 8.347656 76.359375 C 9.320312 77.800781 11.148438 78.613281 13.769531 78.613281 C 16.449219 78.613281 18.277344 77.800781 19.3125 76.265625 C 20.289062 74.734375 20.773438 72.476562 20.773438 69.679688 Z M 114.292969 23.195312 C 118.984375 23.195312 122.515625 24.550781 124.710938 27.347656 C 126.902344 30.144531 128 33.574219 128 37.726562 L 128 72.929688 C 128 74.371094 127.816406 75.90625 127.453125 77.621094 C 127.085938 79.335938 126.414062 80.960938 125.441406 82.316406 C 124.464844 83.667969 123.003906 84.933594 121.238281 85.925781 C 119.46875 86.917969 117.15625 87.367188 114.292969 87.367188 C 111.429688 87.367188 109.113281 86.828125 107.347656 85.925781 C 105.578125 85.023438 104.179688 83.757812 103.144531 82.316406 C 102.105469 80.871094 101.4375 79.335938 101.132812 77.621094 C 100.765625 75.90625 100.585938 74.28125 100.585938 72.929688 L 100.585938 67.332031 C 100.585938 64.351562 101.132812 61.554688 102.167969 59.027344 C 103.203125 56.589844 104.726562 54.785156 106.617188 53.792969 C 107.589844 53.25 108.625 52.800781 109.90625 52.167969 C 111.125 51.535156 112.34375 50.996094 113.5 50.273438 C 114.65625 49.640625 115.632812 49.191406 116.546875 48.738281 C 117.398438 48.199219 117.949219 48.015625 118.191406 47.835938 C 118.375 47.65625 118.679688 47.476562 118.984375 47.203125 C 119.347656 46.933594 119.652344 46.484375 120.019531 46.03125 C 120.382812 45.398438 120.628906 44.859375 120.8125 44.136719 C 121.054688 43.414062 121.175781 42.601562 121.175781 41.609375 L 121.175781 39.351562 C 121.175781 38.539062 121.054688 37.816406 120.8125 36.914062 C 120.628906 36.011719 120.203125 35.382812 119.714844 34.570312 C 119.164062 33.847656 118.433594 33.304688 117.582031 32.855469 C 116.730469 32.402344 115.632812 32.222656 114.230469 32.222656 C 111.550781 32.222656 109.785156 33.035156 108.746094 34.660156 C 107.957031 36.101562 107.40625 37.816406 107.347656 39.804688 C 107.347656 40.253906 107.101562 40.527344 106.796875 40.527344 L 100.949219 40.527344 C 100.644531 40.527344 100.402344 40.164062 100.402344 39.714844 L 100.402344 37.636719 C 100.402344 35.652344 100.644531 33.757812 101.132812 32.042969 C 101.621094 30.328125 102.472656 28.703125 103.628906 27.347656 C 104.726562 26.085938 106.1875 24.910156 107.957031 24.28125 C 109.785156 23.648438 111.855469 23.195312 114.292969 23.195312 Z M 121.175781 54.875 C 121.054688 55.6875 120.75 56.230469 120.382812 56.683594 C 119.957031 57.132812 119.59375 57.3125 119.164062 57.585938 C 118.375 58.035156 117.460938 58.488281 116.546875 58.9375 C 115.632812 59.480469 114.71875 59.929688 113.925781 60.292969 C 112.953125 60.832031 111.976562 61.285156 111.183594 61.734375 C 110.515625 62.1875 109.90625 62.730469 109.296875 63.359375 C 108.808594 63.992188 108.382812 64.804688 107.957031 65.796875 C 107.53125 66.789062 107.347656 68.054688 107.347656 69.589844 C 107.347656 72.566406 107.835938 74.824219 108.808594 76.359375 C 109.785156 77.800781 111.609375 78.613281 114.230469 78.613281 C 116.910156 78.613281 118.738281 77.800781 119.773438 76.265625 C 120.75 74.734375 121.238281 72.476562 121.238281 69.679688 Z M 121.175781 54.875 "/>
<path style=" stroke:none;fill-rule:nonzero;fill:rgb(44.705882%,45.098039%,45.490196%);fill-opacity:1;" d="M 42.644531 100.636719 C 42.644531 100.183594 42.890625 99.824219 43.195312 99.824219 L 46.546875 99.824219 C 46.851562 99.824219 47.09375 100.183594 47.09375 100.636719 L 47.09375 122.75 L 53.734375 122.75 C 54.039062 122.75 54.28125 123.109375 54.28125 123.5625 L 54.28125 128.074219 C 54.28125 128.527344 54.039062 128.886719 53.734375 128.886719 L 43.195312 128.886719 C 42.890625 128.886719 42.644531 128.527344 42.644531 128.074219 Z M 42.644531 100.636719 "/>
<path style=" stroke:none;fill-rule:nonzero;fill:rgb(44.705882%,45.098039%,45.490196%);fill-opacity:1;" d="M 55.378906 127.804688 L 64.089844 100.003906 C 64.152344 99.734375 64.394531 99.554688 64.578125 99.554688 L 64.882812 99.554688 C 65.066406 99.554688 65.25 99.734375 65.371094 100.003906 L 74.082031 127.804688 C 74.265625 128.34375 74.023438 128.886719 73.59375 128.886719 L 70.488281 128.886719 C 70 128.886719 69.757812 128.617188 69.511719 127.894531 L 68.539062 124.644531 L 60.921875 124.644531 L 59.949219 127.984375 C 59.828125 128.4375 59.523438 128.976562 58.972656 128.976562 L 55.925781 128.976562 C 55.378906 128.886719 55.195312 128.34375 55.378906 127.804688 Z M 66.832031 118.957031 L 64.699219 112.097656 L 62.628906 118.957031 Z M 66.832031 118.957031 "/>
<path style=" stroke:none;fill-rule:nonzero;fill:rgb(44.705882%,45.098039%,45.490196%);fill-opacity:1;" d="M 77.859375 105.960938 L 73.839844 105.960938 C 73.535156 105.960938 73.289062 105.601562 73.289062 105.148438 L 73.289062 100.636719 C 73.289062 100.183594 73.535156 99.824219 73.839844 99.824219 L 86.207031 99.824219 C 86.511719 99.824219 86.753906 100.183594 86.753906 100.636719 L 86.753906 105.148438 C 86.753906 105.601562 86.511719 105.960938 86.207031 105.960938 L 82.246094 105.960938 L 82.246094 128.074219 C 82.246094 128.527344 82.003906 128.886719 81.699219 128.886719 L 78.347656 128.886719 C 78.042969 128.886719 77.800781 128.527344 77.800781 128.074219 L 77.800781 105.960938 Z M 77.859375 105.960938 "/>
<path style=" stroke:none;fill-rule:nonzero;fill:rgb(44.705882%,45.098039%,45.490196%);fill-opacity:1;" d="M 86.085938 127.804688 L 94.796875 100.003906 C 94.859375 99.734375 95.101562 99.554688 95.285156 99.554688 L 95.589844 99.554688 C 95.769531 99.554688 95.953125 99.734375 96.074219 100.003906 L 104.789062 127.804688 C 104.96875 128.34375 104.726562 128.886719 104.300781 128.886719 L 101.195312 128.886719 C 100.707031 128.886719 100.460938 128.617188 100.21875 127.894531 L 99.242188 124.644531 L 91.628906 124.644531 L 90.652344 127.984375 C 90.53125 128.4375 90.226562 128.976562 89.617188 128.976562 L 86.570312 128.976562 C 86.144531 128.886719 85.902344 128.34375 86.085938 127.804688 Z M 97.539062 118.957031 L 95.40625 112.097656 L 93.335938 118.957031 Z M 97.539062 118.957031 "/>
<path style=" stroke:none;fill-rule:nonzero;fill:rgb(44.705882%,45.098039%,45.490196%);fill-opacity:1;" d="M 108.992188 100.09375 C 108.992188 99.734375 109.296875 99.464844 109.480469 99.464844 L 109.90625 99.464844 C 110.027344 99.464844 110.269531 99.644531 110.394531 99.914062 L 116.851562 117.785156 L 116.910156 117.785156 L 123.371094 99.914062 C 123.429688 99.644531 123.734375 99.464844 123.855469 99.464844 L 124.285156 99.464844 C 124.527344 99.464844 124.769531 99.734375 124.769531 100.09375 L 127.9375 127.894531 C 128 128.4375 127.757812 128.796875 127.390625 128.796875 L 124.101562 128.796875 C 123.855469 128.796875 123.613281 128.4375 123.550781 128.164062 L 122.273438 115.347656 L 122.210938 115.347656 L 117.519531 128.707031 C 117.460938 128.976562 117.214844 129.15625 117.035156 129.15625 L 116.546875 129.15625 C 116.363281 129.15625 116.179688 128.976562 116.058594 128.707031 L 111.367188 115.347656 L 111.308594 115.347656 L 110.089844 128.164062 C 110.089844 128.527344 109.84375 128.796875 109.539062 128.796875 L 106.25 128.796875 C 105.882812 128.796875 105.640625 128.4375 105.703125 127.894531 Z M 108.992188 100.09375 "/>
</g>
</svg>
